<svg width="598" height="188" viewBox="0 0 598 188" fill="none" xmlns="http://www.w3.org/2000/svg">
<g clip-path="url(#clip0_18_35)">
<path d="M236.717 145.235C226.14 145.235 218.103 143.329 213.026 139.307C207.738 135.284 205.2 129.78 205.2 122.793C205.2 115.807 208.372 109.455 214.507 105.645C220.641 101.622 229.525 99.5049 241.37 99.5049H260.619V94.6355C260.619 89.131 259.138 84.6851 255.965 81.9328C253.004 78.9688 248.774 77.4869 242.639 77.4869C236.505 77.4869 232.486 78.9688 229.313 81.7211C225.929 84.6851 224.025 88.9193 223.179 94.4238H206.68C207.738 86.5905 211.545 80.2391 218.103 76.2166C224.66 71.9824 233.544 69.8652 244.543 69.8652C255.542 69.8652 266.119 72.1941 272.464 76.64C279.022 81.2977 282.194 87.8607 282.194 96.5409V119.829C282.194 128.721 282.829 136.978 284.31 143.964H264.638C263.58 140.154 262.946 136.766 262.523 134.014C259.561 138.036 255.965 141 251.523 142.906C246.87 144.811 242.005 145.446 236.505 145.446L236.717 145.235ZM241.37 138.036C247.504 138.036 252.369 136.343 255.754 132.955C259.138 129.568 260.83 125.122 260.83 119.617V107.126H247.716C241.159 107.126 236.082 108.397 232.698 111.149C229.102 113.901 227.41 117.712 227.41 122.793C227.41 127.874 228.679 131.685 231.006 134.226C233.544 136.766 236.928 138.036 241.582 138.036H241.37Z" fill="#090C17"/>
<path d="M294.674 71.1351H316.673V85.9549C318.577 80.6621 321.538 76.6396 325.557 73.6756C329.576 70.7117 334.441 69.4414 340.575 69.4414C346.709 69.4414 344.171 69.4414 345.652 70.0765L344.382 82.7792C342.69 81.9324 340.787 81.509 338.248 81.509C331.056 81.509 325.557 84.4729 322.172 90.4009C318.788 96.3288 316.884 103.104 316.884 111.36V143.752H294.886V71.1351H294.674Z" fill="#090C17"/>
<path d="M409.955 143.964L381.399 110.514L373.361 117.288V143.752H351.363V42.5542H373.361V101.833L407.205 73.6758H424.762L394.725 99.2929L432.165 144.176H410.167L409.955 143.964Z" fill="#090C17"/>
<path d="M438.088 71.1353H460.086V143.964H438.088V71.1353Z" fill="#090C17"/>
<path d="M469.816 71.1351H491.815V81.7207C493.507 78.1216 496.468 75.1576 500.699 72.8288C504.929 70.5 509.583 69.4414 515.083 69.4414C520.582 69.4414 528.409 70.7117 532.851 73.4639C537.504 76.2162 540.677 80.027 542.792 85.1081C544.907 79.6036 548.292 75.581 552.522 73.4639C556.753 70.9234 561.829 69.6531 567.329 69.6531C587.847 69.6531 598 78.545 598 97.1756V143.752H576.001V95.9054C576.001 89.7657 574.732 85.3198 572.406 82.1441C570.079 78.9684 566.483 77.4865 561.829 77.4865C557.176 77.4865 552.099 80.027 549.138 85.1081C546.177 90.1892 544.696 97.5991 544.696 107.126V143.541H523.12V101.622C523.332 93.7883 522.063 87.4369 519.313 83.4144C516.775 79.1802 513.179 77.063 508.314 77.063C503.449 77.063 499.007 79.1801 496.045 83.6261C493.296 88.072 491.815 94.2117 491.815 102.257V143.541H469.816V70.9234V71.1351Z" fill="#090C17"/>
<path d="M460.086 42.5542H438.088V62.4551H460.086V42.5542Z" fill="#090C17"/>
<path d="M170.087 0H17.7469C7.94555 0 0 7.95259 0 17.7626V170.237C0 180.047 7.94555 188 17.7469 188H170.087C179.888 188 187.833 180.047 187.833 170.237V17.7626C187.833 7.95259 179.888 0 170.087 0Z" fill="#090C17"/>
<path d="M110.162 43.8667H99.9875V50.8532H89.8132V43.8667H33.8228L48.4814 62.5185H141.298L155.957 43.8667H110.162Z" fill="white"/>
<path d="M105.085 155.481L117.798 142.736L105.085 130.012H84.7155V117.267L72.0029 130.012L84.7155 142.736H105.085V155.481Z" fill="white"/>
<path d="M127.972 115.997L115.26 103.252H74.5411V90.5278L61.8074 103.252L74.5411 115.997H115.26V128.721L127.972 115.997Z" fill="white"/>
<path d="M120.336 101.981L133.07 89.2575L120.336 76.5124H69.4434V63.7886L56.7308 76.5124L69.4434 89.2575H120.336V101.981Z" fill="white"/>
</g>
<defs>
<clipPath id="clip0_18_35">
<rect width="598" height="188" fill="white"/>
</clipPath>
</defs>
</svg>
